<?xml version="1.0" encoding="UTF-8"?>
<svg id="Capa_2" data-name="Capa 2" xmlns="http://www.w3.org/2000/svg" viewBox="0 0 32.59 30">
  <defs>
    <style>
      .cls-1 {
        fill: #fdab08;
      }

      .cls-1, .cls-2 {
        stroke-width: 0px;
      }

      .cls-2 {
        fill: #ea010e;
      }
    </style>
  </defs>
  <g id="Capa_1-2" data-name="Capa 1">
    <g>
      <path class="cls-2" d="M21.57,27.72c-.71-.39-1.43-.79-2.14-1.18-2.34-1.3-2.85-3.57-3.07-5.99-.58.14-.43.62-.54.95-.79,2.39-1.38,4.86-2.63,7.06-1.02,1.8-2.21,1.89-3.64.43-.46-.47-.52-1-.44-1.56.44-3.18.77-6.4,3.11-8.92.08-.08.1-.22.18-.42-1.29-.1-2.43.37-3.59.59-1.71.32-3.42.63-5.16.55-.87-.04-1.7-.27-2.49-.68-1.38-.71-1.53-1.34-.36-2.43,1.69-1.58,3.86-2.09,6.04-2.53,1.21-.25,2.44-.43,3.68-.76-2.15-1.09-4.09-2.45-6.17-3.55-.99-.52-1.24-1.37-1.11-2.26.13-.89,1.07-.93,1.79-.96,2.73-.12,5.27.42,7.4,2.27.26.23.55.43.82.63.03.02.08,0,.27-.01-.23-1.66-.3-3.32-.28-4.99.01-.91.03-1.82.3-2.71.43-1.37.98-1.58,2.18-.73,1.38.97,1.87,2.47,2.23,4,.31,1.34.55,2.71.56,4.37.9-1.17,1.62-2.16,2.39-3.11,1.33-1.63,2.85-3.05,4.78-3.95,1.39-.65,2.79-.4,3.41.59.41.65.48,1.33.22,2.11-.98,2.95-2.49,5.44-5.48,6.76-.37.16-.82.3-1.08.84,1.76.32,3.49.6,5.2.97,1.36.29,2.7.68,3.8,1.6.81.32.91.98.78,1.71-.16.88-.66,1.48-1.52,1.78-1.46.5-2.97.5-4.48.47-1.61.05-3.17-.22-5.01-.85,1.09,2.17,2.16,4.03,3.08,5.98.3.63.56,1.27.74,1.93.44,1.59-.1,2.39-1.74,2.57-.75.08-1.47.03-2.05-.54Z"/>
      <path class="cls-1" d="M14,13.96c.01-1.4.82-2.23,2.12-2.21,1.35.03,2.96,1.16,2.94,2.07-.02.93-1.81,2.39-2.91,2.37-1.23-.02-2.17-1-2.16-2.24Z"/>
    </g>
  </g>
</svg>