<?xml version="1.0" encoding="UTF-8"?>
<svg id="Capa_2" data-name="Capa 2" xmlns="http://www.w3.org/2000/svg" viewBox="0 0 33.72 30">
  <defs>
    <style>
      .cls-1 {
        fill: #711b26;
      }

      .cls-1, .cls-2 {
        stroke-width: 0px;
      }

      .cls-2 {
        fill: #feab08;
      }
    </style>
  </defs>
  <g id="Capa_1-2" data-name="Capa 1">
    <g>
      <path class="cls-2" d="M23.66,29.87c-1.17.39-2.05-.14-2.81-.94-1.75-1.84-3.15-3.9-3.89-6.37-.14-.46-.32-.91-.5-1.43-.62.3-.78.86-1.02,1.35-1.14,2.24-2.18,4.54-3.78,6.5-1.15,1.41-2.23,1.26-3.14-.36-1.44-2.59-.9-6.44,1.2-8.57.39-.4.91-.69,1.16-1.38-2.53.71-4.94,1.56-7.46,1.95-.48.07-.97.16-1.44.12-.8-.06-1.71-.15-1.85-1.14-.14-1.01-.41-2.18.8-2.82,2.78-1.47,5.58-2.85,8.87-2.61.29.02.59,0,1.03,0-.37-.82-.98-1.25-1.5-1.76-1.54-1.51-3.11-3-4.29-4.84-.62-.96-.9-2-.98-3.11-.08-1.06.45-1.47,1.45-1.31,1.91.31,3.44,1.34,4.81,2.61,1.31,1.22,2.52,2.54,3.89,3.75-.26-2.49-.3-4.94-.46-7.38-.07-1.05.49-1.58,1.19-2,.74-.44,1.25.23,1.66.71,2.2,2.56,2.93,5.55,2.37,9.12,1.14-.87,2.13-1.62,3.11-2.37,1.02-.79,2.1-1.47,3.29-1.95,1.66-.67,2.47,0,2.18,1.77-.23,1.41-1.04,2.51-1.94,3.55-.98,1.13-2.18,2.02-3.55,3.19,2.67-.05,5.06.11,7.38.78,1.07.31,2.08.73,3,1.36.91.62,1.45,1.45,1.25,2.57-.2,1.07-.95,1.59-1.98,1.87-3.01.82-5.92.89-8.65-.9-.26-.17-.55-.28-.83-.4-.07-.03-.17-.02-.41-.05.89,2.11,1.76,4.15,2.62,6.19.28,1.53-.15,2.93-.75,4.3Z"/>
      <path class="cls-1" d="M18.86,15.89c-.08.78-.15,1.67-1.4,1.68-1.76,0-3.15-1.16-3.12-2.66.02-1.35,1.04-2.34,2.36-2.29,1.26.04,2.17,1.37,2.17,3.28Z"/>
    </g>
  </g>
</svg>